{"title":"Alice Cooper - Super Duper (720P DTS x264) (2014) BBM","uid":12135272,"size":4510311696,"categoryP":"video","categoryS":"movies","magnet":"?xt=urn:btih:e5250c9f843976db36a1dca1b75a7856148bc35e&amp;dn=Alice+Cooper+-+Super+Duper+%28720P+DTS+x264%29+%282014%29+BBM&amp;tr=udp%3A%2F%2Ftracker.openbittorrent.com%3A80&amp;tr=udp%3A%2F%2Fopen.demonii.com%3A1337&amp;tr=udp%3A%2F%2Ftracker.coppersurfer.tk%3A6969&amp;tr=udp%3A%2F%2Fexodus.desync.com%3A6969","seeders":0,"leechers":0,"uploader":"BBMetal","files":3,"time":1437162190,"description":"General \nUnique ID : 229334306763196893697188224976188132518 (0xAC882E4D4D9D29FEAF62DDCDEAF0CCA6) \nComplete name : C:VideoAlice.Cooper-Super.Duper.2014.720p.Blu-ray.DTS.x264-BBMAlice.Cooper-Super.Duper.2014.720p.Blu-ray.DTS.x264-BBM.mkv \nFormat : Matroska \nFormat version : Version 4 / Version 2 \nFile size : 4.16 GiB \nDuration : 1h 26mn \nOverall bit rate : 6 865 Kbps \nEncoded date : UTC 2015-01-21 14:07:46 \nWriting application : mkvmerge v7.5.0 ('Glass Culture') 64bit built on Jan 4 2015 16:48:44 \nWriting library : libebml v1.3.1 + libmatroska v1.4.2 \nDURATION : 01:26:43.168000000 \nNUMBER_OF_FRAMES : 487797 \nNUMBER_OF_BYTES : 499504128 \n_STATISTICS_WRITING_APP : mkvmerge v7.5.0 ('Glass Culture') 64bit built on Jan 4 2015 16:48:44 \n_STATISTICS_WRITING_DATE_UTC : 2015-01-21 14:07:46 \n_STATISTICS_TAGS : BPS DURATION NUMBER_OF_FRAMES NUMBER_OF_BYTES \n\nVideo \nID : 1 \nFormat : AVC \nFormat/Info : Advanced Video Codec \nFormat profile : &lt;a class=&quot;__cf_email__&quot; href=&quot;/cdn-cgi/l/email-protection&quot; data-cfemail=&quot;97dffef0ffd7dba3b9a6&quot;&gt;[email&amp;#160;protected]&lt;/a&gt;&lt;script data-cfhash='f9e31' type=&quot;text/javascript&quot;&gt;\n/* &lt;![CDATA[ */!function(){try{var t=&quot;currentScript&quot;in document?document.currentScript:function(){for(var t=document.getElementsByTagName(&quot;script&quot;),e=t.length;e--;)if(t[e].getAttribute(&quot;data-cfhash&quot;))return t[e]}();if(t&amp;&amp;t.previousSibling){var e,r,n,i,c=t.previousSibling,a=c.getAttribute(&quot;data-cfemail&quot;);if(a){for(e=&quot;&quot;,r=parseInt(a.substr(0,2),16),n=2;a.length-n;n+=2)i=parseInt(a.substr(n,2),16)^r,e+=String.fromCharCode(i);e=document.createTextNode(e),c.parentNode.replaceChild(e,c)}t.parentNode.removeChild(t);}}catch(u){}}()/* ]]&gt; */&lt;/script&gt; \nFormat settings, CABAC : Yes \nFormat settings, ReFrames : 9 frames \nCodec ID : V_MPEG4/ISO/AVC \nDuration : 1h 26mn \nBit rate : 5 960 Kbps \nWidth : 1 280 pixels \nHeight : 720 pixels \nDisplay aspect ratio : 16:9 \nFrame rate mode : Constant \nFrame rate : 23.976 fps \nColor space : YUV \nChroma subsampling : 4:2:0 \nBit depth : 8 bits \nScan type : Progressive \nBits/(Pixel*Frame) : 0.270 \nStream size : 3.61 GiB (87%) \nWriting library : x264 core 144 r2525kMod 40bb568 \nEncoding settings : cabac=1 / ref=9 / deblock=1:-3:-3 / analyse=0x3:0x133 / me=umh / subme=10 / psy=1 / fade_compensate=0.00 / psy_rd=1.00:0.00 / mixed_ref=1 / me_range=32 / chroma_me=1 / trellis=2 / 8x8dct=1 / cqm=0 / deadzone=21,11 / fast_pskip=0 / chroma_qp_offset=-2 / threads=6 / lookahead_threads=1 / sliced_threads=0 / nr=0 / decimate=0 / interlaced=0 / bluray_compat=0 / constrained_intra=0 / fgo=0 / bframes=6 / b_pyramid=2 / b_adapt=2 / b_bias=0 / direct=3 / weightb=1 / open_gop=0 / weightp=2 / keyint=250 / keyint_min=24 / scenecut=40 / intra_refresh=0 / rc=crf / mbtree=0 / crf=18.0000 / qcomp=0.60 / qpmin=0 / qpmax=69 / qpstep=4 / ip_ratio=1.40 / pb_ratio=1.30 / aq=2:0.80 \nLanguage : English \nDefault : Yes \nForced : No \nMatrix coefficients : BT.709 \nColor range : Limited \nDURATION : 01:26:42.239000000 \nNUMBER_OF_FRAMES : 124729 \nNUMBER_OF_BYTES : 3963652871 \n_STATISTICS_WRITING_APP : mkvmerge v7.5.0 ('Glass Culture') 64bit built on Jan 4 2015 16:48:44 \n_STATISTICS_WRITING_DATE_UTC : 2015-01-21 14:07:46 \n_STATISTICS_TAGS : BPS DURATION NUMBER_OF_FRAMES NUMBER_OF_BYTES \n\n\nAudio \nID : 2 \nFormat : DTS \nFormat/Info : Digital Theater Systems \nMode : 16 \nFormat settings, Endianness : Big \nCodec ID : A_DTS \nDuration : 1h 26mn \nBit rate mode : Constant \nBit rate : 768 Kbps \nChannel(s) : 6 channels \nChannel positions : Front: L C R, Side: L R, LFE \nSampling rate : 48.0 KHz \nBit depth : 24 bits \nCompression mode : Lossy \nStream size : 476 MiB (11%) \nDefault : Yes \nForced : No \n\nMenu \n00:00:00.000 : en:00:00:00.000 \n00:04:56.296 : en:00:04:56.296 \n00:11:39.574 : en:00:11:39.574 \n00:17:42.061 : en:00:17:42.061 \n00:26:13.197 : en:00:26:13.197 \n00:38:05.408 : en:00:38:05.408 \n00:47:43.027 : en:00:47:43.027 \n00:53:13.315 : en:00:53:13.315 \n00:58:13.115 : en:00:58:13.115 \n01:09:46.182 : en:01:09:46.182 \n01:14:15.451 : en:01:14:15.451 \n01:22:44.418 : en:01:22:44.418","torrent":{"xt":"urn:btih:e5250c9f843976db36a1dca1b75a7856148bc35e","amp;dn":"Alice+Cooper+-+Super+Duper+%28720P+DTS+x264%29+%282014%29+BBM","amp;tr":["udp%3A%2F%2Ftracker.openbittorrent.com%3A80","udp%3A%2F%2Fopen.demonii.com%3A1337","udp%3A%2F%2Ftracker.coppersurfer.tk%3A6969","udp%3A%2F%2Fexodus.desync.com%3A6969"],"infoHash":"e5250c9f843976db36a1dca1b75a7856148bc35e","infoHashBuffer":{"type":"Buffer","data":[229,37,12,159,132,57,118,219,54,161,220,161,183,90,120,86,20,139,195,94]},"announce":[],"urlList":[]}}